<?xml version="1.0" encoding="utf-8"?>
<!-- Generator: Adobe Illustrator 18.1.0, SVG Export Plug-In . SVG Version: 6.00 Build 0)  -->
<!DOCTYPE svg PUBLIC "-//W3C//DTD SVG 1.1//EN" "http://www.w3.org/Graphics/SVG/1.1/DTD/svg11.dtd">
<svg version="1.1" id="Layer_1" xmlns="http://www.w3.org/2000/svg" xmlns:xlink="http://www.w3.org/1999/xlink" x="0px" y="0px"
	 width="400.2px" height="400px" viewBox="97.9 0 400.2 400" enable-background="new 97.9 0 400.2 400" xml:space="preserve">
<path fill="#FFFFFF" d="M487.1,336l-136-136l136-136c14.7-14.7,14.7-38.4,0-53s-38.4-14.7-53,0l-136,136L162,11.1
	c-14.7-14.7-38.3-14.7-53,0S94.3,49.3,109.1,64l136,136l-136,136c-14.7,14.7-14.7,38.4,0,53s38.4,14.7,53,0l136-136l136,136
	c14.7,14.7,38.4,14.7,53,0C501.6,374.3,501.6,350.5,487.1,336z"/>
</svg>
