<?xml version="1.0" encoding="utf-8"?>
<!-- Generator: Adobe Illustrator 18.1.0, SVG Export Plug-In . SVG Version: 6.00 Build 0)  -->
<!DOCTYPE svg PUBLIC "-//W3C//DTD SVG 1.1//EN" "http://www.w3.org/Graphics/SVG/1.1/DTD/svg11.dtd">
<svg version="1.1" id="Layer_1" xmlns="http://www.w3.org/2000/svg" xmlns:xlink="http://www.w3.org/1999/xlink" x="0px" y="0px"
	 width="560px" height="400px" viewBox="18 0 560 400" enable-background="new 18 0 560 400" xml:space="preserve">
<path fill="#FFFFFF" d="M58,80h480c22.1,0,40-17.9,40-40S560.1,0,538,0H58C35.9,0,18,17.9,18,40S35.9,80,58,80z M538,160H58
	c-22.1,0-40,17.9-40,40s17.9,40,40,40h480c22.1,0,40-17.9,40-40S560.1,160,538,160z M538,320H58c-22.1,0-40,17.9-40,40
	c0,22.1,17.9,40,40,40h480c22.1,0,40-17.9,40-40C578,337.9,560.1,320,538,320z"/>
</svg>
